<svg width="108" height="20" viewBox="0 0 108 20" fill="none" xmlns="http://www.w3.org/2000/svg">
<path d="M9.99998 1.66675C8.90567 1.66675 7.82204 1.8823 6.81099 2.30109C5.79995 2.71988 4.88129 3.33371 4.10747 4.10753C2.54466 5.67033 1.66669 7.78995 1.66669 10.0001C1.66669 13.6834 4.05836 16.8084 7.36669 17.9167C7.78336 17.9834 7.91669 17.7251 7.91669 17.5001V16.0917C5.60836 16.5917 5.11669 14.9751 5.11669 14.9751C4.73336 14.0084 4.19169 13.7501 4.19169 13.7501C3.43336 13.2334 4.25002 13.2501 4.25002 13.2501C5.08336 13.3084 5.52502 14.1084 5.52502 14.1084C6.25002 15.3751 7.47502 15.0001 7.95002 14.8001C8.02502 14.2584 8.24169 13.8917 8.47502 13.6834C6.62502 13.4751 4.68336 12.7584 4.68336 9.58342C4.68336 8.65842 5.00002 7.91675 5.54169 7.32509C5.45836 7.11675 5.16669 6.25009 5.62502 5.12509C5.62502 5.12509 6.32502 4.90009 7.91669 5.97509C8.57502 5.79175 9.29169 5.70009 9.99998 5.70009C10.7084 5.70009 11.425 5.79175 12.0834 5.97509C13.675 4.90009 14.375 5.12509 14.375 5.12509C14.8334 6.25009 14.5417 7.11675 14.4584 7.32509C15 7.91675 15.3167 8.65842 15.3167 9.58342C15.3167 12.7667 13.3667 13.4667 11.5084 13.6751C11.8084 13.9334 12.0834 14.4417 12.0834 15.2167V17.5001C12.0834 17.7251 12.2167 17.9917 12.6417 17.9167C15.95 16.8001 18.3334 13.6834 18.3334 10.0001C18.3334 8.90574 18.1178 7.8221 17.699 6.81106C17.2803 5.80001 16.6664 4.88135 15.8926 4.10753C15.1188 3.33371 14.2001 2.71988 13.1891 2.30109C12.178 1.8823 11.0944 1.66675 9.99998 1.66675Z" fill="#5A6475"/>
<path d="M59.8333 2.5C60.2754 2.5 60.6993 2.67559 61.0118 2.98816C61.3244 3.30072 61.5 3.72464 61.5 4.16667V15.8333C61.5 16.2754 61.3244 16.6993 61.0118 17.0118C60.6993 17.3244 60.2754 17.5 59.8333 17.5H48.1667C47.7246 17.5 47.3007 17.3244 46.9882 17.0118C46.6756 16.6993 46.5 16.2754 46.5 15.8333V4.16667C46.5 3.72464 46.6756 3.30072 46.9882 2.98816C47.3007 2.67559 47.7246 2.5 48.1667 2.5H59.8333ZM59.4167 15.4167V11C59.4167 10.2795 59.1304 9.5885 58.621 9.07903C58.1115 8.56955 57.4205 8.28333 56.7 8.28333C55.9917 8.28333 55.1667 8.71667 54.7667 9.36667V8.44167H52.4417V15.4167H54.7667V11.3083C54.7667 10.6667 55.2833 10.1417 55.925 10.1417C56.2344 10.1417 56.5312 10.2646 56.75 10.4834C56.9688 10.7022 57.0917 10.9989 57.0917 11.3083V15.4167H59.4167ZM49.7333 7.13333C50.1046 7.13333 50.4607 6.98583 50.7233 6.72328C50.9858 6.46073 51.1333 6.10464 51.1333 5.73333C51.1333 4.95833 50.5083 4.325 49.7333 4.325C49.3598 4.325 49.0016 4.47338 48.7375 4.73749C48.4734 5.0016 48.325 5.35982 48.325 5.73333C48.325 6.50833 48.9583 7.13333 49.7333 7.13333ZM50.8917 15.4167V8.44167H48.5833V15.4167H50.8917Z" fill="#5A6475"/>
<g clip-path="url(#clip0_1352_1824)">
<path d="M104.931 4.24315C103.656 3.66815 102.289 3.24315 100.86 3.00148C100.847 2.99904 100.834 3.00061 100.822 3.00599C100.81 3.01136 100.801 3.02027 100.794 3.03148C100.619 3.33898 100.424 3.73981 100.287 4.05648C98.7716 3.83001 97.2306 3.83001 95.7149 4.05648C95.5627 3.70553 95.391 3.36334 95.2007 3.03148C95.1943 3.02013 95.1845 3.01102 95.1728 3.00537C95.161 2.99971 95.1478 2.99777 95.1349 2.99982C93.7066 3.24148 92.3399 3.66648 91.0641 4.24231C91.0531 4.24692 91.0438 4.25477 91.0374 4.26481C88.4441 8.0773 87.7332 11.7957 88.0824 15.4673C88.0834 15.4763 88.0862 15.485 88.0906 15.4929C88.0951 15.5008 88.1011 15.5077 88.1082 15.5131C89.6219 16.6152 91.3102 17.4547 93.1024 17.9965C93.1149 18.0003 93.1283 18.0003 93.1407 17.9964C93.1532 17.9926 93.1643 17.985 93.1724 17.9748C93.5574 17.4581 93.9007 16.9123 94.1941 16.339C94.2116 16.3056 94.1949 16.2656 94.1599 16.2523C93.6216 16.0496 93.1 15.8049 92.5999 15.5206C92.5909 15.5155 92.5833 15.5082 92.5779 15.4995C92.5724 15.4907 92.5692 15.4807 92.5685 15.4704C92.5679 15.46 92.5698 15.4497 92.5741 15.4403C92.5784 15.4309 92.585 15.4227 92.5932 15.4165C92.6982 15.339 92.8032 15.2581 92.9032 15.1773C92.9122 15.17 92.9231 15.1654 92.9345 15.1639C92.946 15.1625 92.9577 15.1642 92.9682 15.169C96.2407 16.639 99.7849 16.639 103.019 15.169C103.03 15.1639 103.041 15.162 103.053 15.1633C103.065 15.1646 103.076 15.1692 103.085 15.1765C103.185 15.2581 103.289 15.339 103.395 15.4165C103.403 15.4226 103.41 15.4307 103.414 15.44C103.419 15.4493 103.421 15.4596 103.42 15.4699C103.42 15.4802 103.417 15.4903 103.411 15.4991C103.406 15.508 103.399 15.5154 103.39 15.5206C102.892 15.8073 102.373 16.0498 101.829 16.2515C101.821 16.2545 101.813 16.2593 101.807 16.2655C101.8 16.2717 101.795 16.2792 101.792 16.2875C101.789 16.2958 101.788 16.3047 101.788 16.3135C101.788 16.3224 101.791 16.3311 101.795 16.339C102.095 16.9115 102.438 17.4565 102.816 17.974C102.824 17.9846 102.835 17.9925 102.847 17.9967C102.859 18.0009 102.873 18.0011 102.886 17.9973C104.681 17.457 106.372 16.6171 107.887 15.5131C107.895 15.508 107.901 15.5013 107.906 15.4935C107.91 15.4858 107.913 15.4771 107.914 15.4681C108.331 11.2232 107.216 7.5348 104.956 4.26648C104.951 4.25586 104.942 4.24758 104.931 4.24315ZM94.6832 13.2315C93.6982 13.2315 92.8857 12.3407 92.8857 11.2482C92.8857 10.1548 93.6824 9.2648 94.6832 9.2648C95.6916 9.2648 96.4966 10.1623 96.4807 11.2482C96.4807 12.3415 95.6841 13.2315 94.6832 13.2315ZM101.329 13.2315C100.343 13.2315 99.5315 12.3407 99.5315 11.2482C99.5315 10.1548 100.327 9.2648 101.329 9.2648C102.337 9.2648 103.142 10.1623 103.127 11.2482C103.127 12.3415 102.338 13.2315 101.329 13.2315Z" fill="#5A6475"/>
</g>
<defs>
<clipPath id="clip0_1352_1824">
<rect width="20" height="20" fill="white" transform="translate(88)"/>
</clipPath>
</defs>
</svg>
